<svg xmlns="http://www.w3.org/2000/svg" viewBox="0 0 800 500" fill="none">
  <rect width="800" height="500" fill="#0a0e0d"/>
  <g opacity="0.35">
    <rect x="120" y="180" width="160" height="180" rx="8" stroke="#2B9E8B" stroke-width="2"/>
    <path d="M120 220h160M160 220v140M240 220v140" stroke="#2B9E8B" stroke-width="1.5"/>
    <rect x="160" y="250" width="60" height="8" rx="2" fill="#2B9E8B" opacity="0.5"/>
    <rect x="160" y="270" width="40" height="8" rx="2" fill="#2B9E8B" opacity="0.5"/>
  </g>
  <path d="M360 360l60-80 50 40 70-100" stroke="#d4a843" stroke-width="3" stroke-linecap="round" stroke-linejoin="round" opacity="0.8"/>
  <circle cx="540" cy="360" r="5" fill="#d4a843"/>
  <circle cx="420" cy="280" r="5" fill="#d4a843"/>
  <circle cx="470" cy="320" r="5" fill="#d4a843"/>
  <circle cx="650" cy="150" r="60" fill="url(#fin-glow)" opacity="0.25"/>
  <path d="M640 170V130h12c6.6 0 12 5.4 12 12s-5.4 12-12 12h-12zM646 130v44M640 144h18" stroke="#f0d78c" stroke-width="2.5" stroke-linecap="round" stroke-linejoin="round"/>
  <defs>
    <radialGradient id="fin-glow" cx="0" cy="0" r="1" gradientUnits="userSpaceOnUse" gradientTransform="translate(650 150) rotate(90) scale(60)">
      <stop stop-color="#d4a843"/>
      <stop offset="1" stop-color="#d4a843" stop-opacity="0"/>
    </radialGradient>
  </defs>
</svg>