<svg width="32" height="32" viewBox="0 0 32 32" fill="none" xmlns="http://www.w3.org/2000/svg">
  <rect width="32" height="32" rx="6" fill="#0B0F14"/>
  <path
    d="M16 6c3.6 0 6.5 2.9 6.5 6.5 0 1.9-.8 3.6-2.1 4.8 2.8 1.2 4.8 4 4.8 7.2 0 4.3-3.5 7.8-7.8 7.8h-3.9c-4.3 0-7.8-3.5-7.8-7.8 0-3.2 2-6 4.8-7.2-1.3-1.2-2.1-2.9-2.1-4.8C9.5 8.9 12.4 6 16 6Z"
    fill="#0B84A5"
  />
  <path
    d="M12.2 18.4h7.6"
    stroke="#F6C648"
    stroke-width="1.8"
    stroke-linecap="round"
  />
  <path
    d="M12.2 21.2h7.6"
    stroke="rgba(255,255,255,0.55)"
    stroke-width="1.8"
    stroke-linecap="round"
  />
  <path
    d="M9.1 13c-1.8 0-3.3-1.5-3.3-3.3S7.3 6.4 9.1 6.4c1.6 0 2.9 1.1 3.2 2.6"
    stroke="rgba(255,255,255,0.7)"
    stroke-width="1.6"
    stroke-linecap="round"
  />
  <path
    d="M22.9 13c1.8 0 3.3-1.5 3.3-3.3s-1.5-3.3-3.3-3.3c-1.6 0-2.9 1.1-3.2 2.6"
    stroke="rgba(255,255,255,0.7)"
    stroke-width="1.6"
    stroke-linecap="round"
  />
</svg>
