<svg xmlns="http://www.w3.org/2000/svg" viewBox="0 0 800 450" role="img" preserveAspectRatio="xMidYMid meet"><defs><linearGradient id="bg4" x1="0" y1="0" x2="1" y2="1"><stop offset="0" stop-color="#f7fafb"/><stop offset="1" stop-color="#eaf2f3"/></linearGradient></defs><rect width="800" height="450" rx="14" fill="url(#bg4)"/><ellipse cx="624" cy="99" rx="150" ry="110" fill="#6cc4b4" opacity="0.10"/><ellipse cx="144" cy="369" rx="130" ry="100" fill="#d4a843" opacity="0.08"/><circle cx="192" cy="29" r="4.5" fill="#2B9E8B" opacity="0.8"/><circle cx="139" cy="113" r="4.5" fill="#2B9E8B" opacity="0.8"/><circle cx="223" cy="135" r="4.5" fill="#2B9E8B" opacity="0.8"/><circle cx="143" cy="146" r="4.5" fill="#2B9E8B" opacity="0.8"/><circle cx="186" cy="70" r="4.5" fill="#2B9E8B" opacity="0.8"/><circle cx="102" cy="122" r="4.5" fill="#2B9E8B" opacity="0.8"/><circle cx="203" cy="8" r="4.5" fill="#2B9E8B" opacity="0.8"/><circle cx="144" cy="133" r="4.5" fill="#2B9E8B" opacity="0.8"/><circle cx="175" cy="61" r="4.5" fill="#2B9E8B" opacity="0.8"/><circle cx="167" cy="123" r="4.5" fill="#2B9E8B" opacity="0.8"/><circle cx="188" cy="55" r="4.5" fill="#2B9E8B" opacity="0.8"/><circle cx="132" cy="65" r="4.5" fill="#2B9E8B" opacity="0.8"/><circle cx="227" cy="198" r="4.5" fill="#2B9E8B" opacity="0.8"/><circle cx="421" cy="293" r="4.5" fill="#d4a843" opacity="0.8"/><circle cx="426" cy="352" r="4.5" fill="#d4a843" opacity="0.8"/><circle cx="351" cy="318" r="4.5" fill="#d4a843" opacity="0.8"/><circle cx="361" cy="298" r="4.5" fill="#d4a843" opacity="0.8"/><circle cx="406" cy="281" r="4.5" fill="#d4a843" opacity="0.8"/><circle cx="414" cy="269" r="4.5" fill="#d4a843" opacity="0.8"/><circle cx="439" cy="286" r="4.5" fill="#d4a843" opacity="0.8"/><circle cx="410" cy="226" r="4.5" fill="#d4a843" opacity="0.8"/><circle cx="374" cy="257" r="4.5" fill="#d4a843" opacity="0.8"/><circle cx="419" cy="285" r="4.5" fill="#d4a843" opacity="0.8"/><circle cx="409" cy="291" r="4.5" fill="#d4a843" opacity="0.8"/><circle cx="621" cy="84" r="4.5" fill="#2B9E8B" opacity="0.8"/><circle cx="729" cy="78" r="4.5" fill="#2B9E8B" opacity="0.8"/><circle cx="581" cy="91" r="4.5" fill="#2B9E8B" opacity="0.8"/><circle cx="548" cy="48" r="4.5" fill="#2B9E8B" opacity="0.8"/><circle cx="629" cy="85" r="4.5" fill="#2B9E8B" opacity="0.8"/><circle cx="656" cy="145" r="4.5" fill="#2B9E8B" opacity="0.8"/><circle cx="574" cy="111" r="4.5" fill="#2B9E8B" opacity="0.8"/><circle cx="618" cy="87" r="4.5" fill="#2B9E8B" opacity="0.8"/><circle cx="670" cy="157" r="4.5" fill="#2B9E8B" opacity="0.8"/><circle cx="653" cy="97" r="4.5" fill="#2B9E8B" opacity="0.8"/><circle cx="595" cy="63" r="4.5" fill="#2B9E8B" opacity="0.8"/><circle cx="620" cy="121" r="4.5" fill="#2B9E8B" opacity="0.8"/><circle cx="603" cy="29" r="4.5" fill="#2B9E8B" opacity="0.8"/><circle cx="631" cy="58" r="4.5" fill="#2B9E8B" opacity="0.8"/><text x="60" y="428" font-family="system-ui,Segoe UI,Arial,sans-serif" font-size="13" fill="#5b7083">Beehive Strategy · conceptual diagram</text></svg>