<svg xmlns="http://www.w3.org/2000/svg" viewBox="0 0 800 450" role="img" preserveAspectRatio="xMidYMid meet"><defs><linearGradient id="bg16" x1="0" y1="0" x2="1" y2="1"><stop offset="0" stop-color="#f7fafb"/><stop offset="1" stop-color="#eaf2f3"/></linearGradient></defs><rect width="800" height="450" rx="14" fill="url(#bg16)"/><ellipse cx="624" cy="99" rx="150" ry="110" fill="#6cc4b4" opacity="0.10"/><ellipse cx="144" cy="369" rx="130" ry="100" fill="#d4a843" opacity="0.08"/><circle cx="161" cy="96" r="4.5" fill="#6cc4b4" opacity="0.8"/><circle cx="248" cy="70" r="4.5" fill="#6cc4b4" opacity="0.8"/><circle cx="118" cy="64" r="4.5" fill="#6cc4b4" opacity="0.8"/><circle cx="191" cy="126" r="4.5" fill="#6cc4b4" opacity="0.8"/><circle cx="98" cy="105" r="4.5" fill="#6cc4b4" opacity="0.8"/><circle cx="137" cy="37" r="4.5" fill="#6cc4b4" opacity="0.8"/><circle cx="113" cy="88" r="4.5" fill="#6cc4b4" opacity="0.8"/><circle cx="124" cy="173" r="4.5" fill="#6cc4b4" opacity="0.8"/><circle cx="125" cy="68" r="4.5" fill="#6cc4b4" opacity="0.8"/><circle cx="209" cy="97" r="4.5" fill="#6cc4b4" opacity="0.8"/><circle cx="201" cy="74" r="4.5" fill="#6cc4b4" opacity="0.8"/><circle cx="150" cy="75" r="4.5" fill="#6cc4b4" opacity="0.8"/><circle cx="214" cy="148" r="4.5" fill="#6cc4b4" opacity="0.8"/><circle cx="418" cy="227" r="4.5" fill="#d4a843" opacity="0.8"/><circle cx="454" cy="321" r="4.5" fill="#d4a843" opacity="0.8"/><circle cx="384" cy="252" r="4.5" fill="#d4a843" opacity="0.8"/><circle cx="529" cy="216" r="4.5" fill="#d4a843" opacity="0.8"/><circle cx="323" cy="257" r="4.5" fill="#d4a843" opacity="0.8"/><circle cx="416" cy="224" r="4.5" fill="#d4a843" opacity="0.8"/><circle cx="450" cy="283" r="4.5" fill="#d4a843" opacity="0.8"/><circle cx="433" cy="222" r="4.5" fill="#d4a843" opacity="0.8"/><circle cx="402" cy="259" r="4.5" fill="#d4a843" opacity="0.8"/><circle cx="479" cy="298" r="4.5" fill="#d4a843" opacity="0.8"/><circle cx="408" cy="257" r="4.5" fill="#d4a843" opacity="0.8"/><circle cx="630" cy="119" r="4.5" fill="#6cc4b4" opacity="0.8"/><circle cx="662" cy="138" r="4.5" fill="#6cc4b4" opacity="0.8"/><circle cx="603" cy="186" r="4.5" fill="#6cc4b4" opacity="0.8"/><circle cx="649" cy="128" r="4.5" fill="#6cc4b4" opacity="0.8"/><circle cx="578" cy="145" r="4.5" fill="#6cc4b4" opacity="0.8"/><circle cx="676" cy="154" r="4.5" fill="#6cc4b4" opacity="0.8"/><circle cx="675" cy="53" r="4.5" fill="#6cc4b4" opacity="0.8"/><circle cx="614" cy="90" r="4.5" fill="#6cc4b4" opacity="0.8"/><circle cx="620" cy="8" r="4.5" fill="#6cc4b4" opacity="0.8"/><circle cx="586" cy="88" r="4.5" fill="#6cc4b4" opacity="0.8"/><circle cx="528" cy="55" r="4.5" fill="#6cc4b4" opacity="0.8"/><circle cx="589" cy="58" r="4.5" fill="#6cc4b4" opacity="0.8"/><circle cx="648" cy="95" r="4.5" fill="#6cc4b4" opacity="0.8"/><circle cx="565" cy="104" r="4.5" fill="#6cc4b4" opacity="0.8"/><circle cx="597" cy="50" r="4.5" fill="#6cc4b4" opacity="0.8"/><circle cx="610" cy="178" r="4.5" fill="#6cc4b4" opacity="0.8"/><text x="60" y="428" font-family="system-ui,Segoe UI,Arial,sans-serif" font-size="13" fill="#5b7083">Beehive Strategy · conceptual diagram</text></svg>