<svg xmlns="http://www.w3.org/2000/svg" viewBox="0 0 800 450" role="img" preserveAspectRatio="xMidYMid meet"><defs><linearGradient id="bg91" x1="0" y1="0" x2="1" y2="1"><stop offset="0" stop-color="#f7fafb"/><stop offset="1" stop-color="#eaf2f3"/></linearGradient></defs><rect width="800" height="450" rx="14" fill="url(#bg91)"/><ellipse cx="624" cy="99" rx="150" ry="110" fill="#6cc4b4" opacity="0.10"/><ellipse cx="144" cy="369" rx="130" ry="100" fill="#d4a843" opacity="0.08"/><circle cx="201" cy="140" r="4.5" fill="#6cc4b4" opacity="0.8"/><circle cx="216" cy="43" r="4.5" fill="#6cc4b4" opacity="0.8"/><circle cx="264" cy="73" r="4.5" fill="#6cc4b4" opacity="0.8"/><circle cx="155" cy="159" r="4.5" fill="#6cc4b4" opacity="0.8"/><circle cx="202" cy="72" r="4.5" fill="#6cc4b4" opacity="0.8"/><circle cx="177" cy="73" r="4.5" fill="#6cc4b4" opacity="0.8"/><circle cx="194" cy="110" r="4.5" fill="#6cc4b4" opacity="0.8"/><circle cx="99" cy="117" r="4.5" fill="#6cc4b4" opacity="0.8"/><circle cx="210" cy="62" r="4.5" fill="#6cc4b4" opacity="0.8"/><circle cx="209" cy="149" r="4.5" fill="#6cc4b4" opacity="0.8"/><circle cx="434" cy="261" r="4.5" fill="#6cc4b4" opacity="0.8"/><circle cx="398" cy="239" r="4.5" fill="#6cc4b4" opacity="0.8"/><circle cx="356" cy="294" r="4.5" fill="#6cc4b4" opacity="0.8"/><circle cx="441" cy="282" r="4.5" fill="#6cc4b4" opacity="0.8"/><circle cx="404" cy="212" r="4.5" fill="#6cc4b4" opacity="0.8"/><circle cx="409" cy="212" r="4.5" fill="#6cc4b4" opacity="0.8"/><circle cx="356" cy="241" r="4.5" fill="#6cc4b4" opacity="0.8"/><circle cx="413" cy="230" r="4.5" fill="#6cc4b4" opacity="0.8"/><circle cx="399" cy="213" r="4.5" fill="#6cc4b4" opacity="0.8"/><circle cx="318" cy="250" r="4.5" fill="#6cc4b4" opacity="0.8"/><circle cx="396" cy="260" r="4.5" fill="#6cc4b4" opacity="0.8"/><circle cx="299" cy="344" r="4.5" fill="#6cc4b4" opacity="0.8"/><circle cx="641" cy="124" r="4.5" fill="#6cc4b4" opacity="0.8"/><circle cx="613" cy="42" r="4.5" fill="#6cc4b4" opacity="0.8"/><circle cx="659" cy="121" r="4.5" fill="#6cc4b4" opacity="0.8"/><circle cx="636" cy="-22" r="4.5" fill="#6cc4b4" opacity="0.8"/><circle cx="592" cy="105" r="4.5" fill="#6cc4b4" opacity="0.8"/><circle cx="688" cy="115" r="4.5" fill="#6cc4b4" opacity="0.8"/><circle cx="632" cy="171" r="4.5" fill="#6cc4b4" opacity="0.8"/><circle cx="628" cy="134" r="4.5" fill="#6cc4b4" opacity="0.8"/><circle cx="605" cy="109" r="4.5" fill="#6cc4b4" opacity="0.8"/><circle cx="625" cy="-4" r="4.5" fill="#6cc4b4" opacity="0.8"/><circle cx="621" cy="160" r="4.5" fill="#6cc4b4" opacity="0.8"/><circle cx="641" cy="90" r="4.5" fill="#6cc4b4" opacity="0.8"/><text x="60" y="428" font-family="system-ui,Segoe UI,Arial,sans-serif" font-size="13" fill="#5b7083">Beehive Strategy · conceptual diagram</text></svg>