<svg xmlns="http://www.w3.org/2000/svg" viewBox="0 0 800 450" role="img" preserveAspectRatio="xMidYMid meet"><defs><linearGradient id="bg39" x1="0" y1="0" x2="1" y2="1"><stop offset="0" stop-color="#f7fafb"/><stop offset="1" stop-color="#eaf2f3"/></linearGradient></defs><rect width="800" height="450" rx="14" fill="url(#bg39)"/><ellipse cx="624" cy="99" rx="150" ry="110" fill="#6cc4b4" opacity="0.10"/><ellipse cx="144" cy="369" rx="130" ry="100" fill="#d4a843" opacity="0.08"/><line x1="653" y1="169" x2="169" y2="253" stroke="#e8eef0" stroke-width="2"/><line x1="653" y1="169" x2="65" y2="214" stroke="#e8eef0" stroke-width="2"/><line x1="169" y1="253" x2="65" y2="214" stroke="#e8eef0" stroke-width="2"/><line x1="169" y1="253" x2="425" y2="182" stroke="#e8eef0" stroke-width="2"/><line x1="65" y1="214" x2="425" y2="182" stroke="#e8eef0" stroke-width="2"/><line x1="65" y1="214" x2="374" y2="311" stroke="#e8eef0" stroke-width="2"/><line x1="425" y1="182" x2="374" y2="311" stroke="#e8eef0" stroke-width="2"/><line x1="425" y1="182" x2="372" y2="258" stroke="#e8eef0" stroke-width="2"/><line x1="374" y1="311" x2="372" y2="258" stroke="#e8eef0" stroke-width="2"/><circle cx="653" cy="169" r="10" fill="#2B9E8B" class="svg-draw" pathLength="1" stroke="#0e2a3b" stroke-width="1.5"/><circle cx="169" cy="253" r="10" fill="#2B9E8B" class="svg-draw" pathLength="1" stroke="#0e2a3b" stroke-width="1.5"/><circle cx="65" cy="214" r="15" fill="#2B9E8B" class="svg-draw" pathLength="1" stroke="#0e2a3b" stroke-width="1.5"/><circle cx="425" cy="182" r="14" fill="#2B9E8B" class="svg-draw" pathLength="1" stroke="#0e2a3b" stroke-width="1.5"/><circle cx="374" cy="311" r="10" fill="#2B9E8B" class="svg-draw" pathLength="1" stroke="#0e2a3b" stroke-width="1.5"/><circle cx="372" cy="258" r="9" fill="#2B9E8B" class="svg-draw" pathLength="1" stroke="#0e2a3b" stroke-width="1.5"/><text x="60" y="428" font-family="system-ui,Segoe UI,Arial,sans-serif" font-size="13" fill="#5b7083">Beehive Strategy · conceptual diagram</text></svg>