<svg xmlns="http://www.w3.org/2000/svg" viewBox="0 0 800 450" role="img" preserveAspectRatio="xMidYMid meet"><defs><linearGradient id="bg80" x1="0" y1="0" x2="1" y2="1"><stop offset="0" stop-color="#f7fafb"/><stop offset="1" stop-color="#eaf2f3"/></linearGradient></defs><rect width="800" height="450" rx="14" fill="url(#bg80)"/><ellipse cx="624" cy="99" rx="150" ry="110" fill="#6cc4b4" opacity="0.10"/><ellipse cx="144" cy="369" rx="130" ry="100" fill="#d4a843" opacity="0.08"/><circle cx="217" cy="107" r="4.5" fill="#2B9E8B" opacity="0.8"/><circle cx="141" cy="134" r="4.5" fill="#2B9E8B" opacity="0.8"/><circle cx="191" cy="131" r="4.5" fill="#2B9E8B" opacity="0.8"/><circle cx="162" cy="163" r="4.5" fill="#2B9E8B" opacity="0.8"/><circle cx="175" cy="101" r="4.5" fill="#2B9E8B" opacity="0.8"/><circle cx="110" cy="141" r="4.5" fill="#2B9E8B" opacity="0.8"/><circle cx="172" cy="131" r="4.5" fill="#2B9E8B" opacity="0.8"/><circle cx="178" cy="20" r="4.5" fill="#2B9E8B" opacity="0.8"/><circle cx="196" cy="156" r="4.5" fill="#2B9E8B" opacity="0.8"/><circle cx="155" cy="101" r="4.5" fill="#2B9E8B" opacity="0.8"/><circle cx="198" cy="17" r="4.5" fill="#2B9E8B" opacity="0.8"/><circle cx="203" cy="85" r="4.5" fill="#2B9E8B" opacity="0.8"/><circle cx="214" cy="52" r="4.5" fill="#2B9E8B" opacity="0.8"/><circle cx="120" cy="66" r="4.5" fill="#2B9E8B" opacity="0.8"/><circle cx="247" cy="89" r="4.5" fill="#2B9E8B" opacity="0.8"/><circle cx="151" cy="96" r="4.5" fill="#2B9E8B" opacity="0.8"/><circle cx="437" cy="300" r="4.5" fill="#d4a843" opacity="0.8"/><circle cx="434" cy="282" r="4.5" fill="#d4a843" opacity="0.8"/><circle cx="386" cy="270" r="4.5" fill="#d4a843" opacity="0.8"/><circle cx="345" cy="326" r="4.5" fill="#d4a843" opacity="0.8"/><circle cx="494" cy="290" r="4.5" fill="#d4a843" opacity="0.8"/><circle cx="332" cy="213" r="4.5" fill="#d4a843" opacity="0.8"/><circle cx="391" cy="213" r="4.5" fill="#d4a843" opacity="0.8"/><circle cx="454" cy="253" r="4.5" fill="#d4a843" opacity="0.8"/><circle cx="384" cy="290" r="4.5" fill="#d4a843" opacity="0.8"/><circle cx="380" cy="249" r="4.5" fill="#d4a843" opacity="0.8"/><circle cx="427" cy="348" r="4.5" fill="#d4a843" opacity="0.8"/><circle cx="409" cy="307" r="4.5" fill="#d4a843" opacity="0.8"/><circle cx="375" cy="240" r="4.5" fill="#d4a843" opacity="0.8"/><circle cx="420" cy="292" r="4.5" fill="#d4a843" opacity="0.8"/><circle cx="358" cy="210" r="4.5" fill="#d4a843" opacity="0.8"/><circle cx="373" cy="234" r="4.5" fill="#d4a843" opacity="0.8"/><circle cx="601" cy="189" r="4.5" fill="#2B9E8B" opacity="0.8"/><circle cx="623" cy="89" r="4.5" fill="#2B9E8B" opacity="0.8"/><circle cx="650" cy="66" r="4.5" fill="#2B9E8B" opacity="0.8"/><circle cx="564" cy="96" r="4.5" fill="#2B9E8B" opacity="0.8"/><circle cx="581" cy="98" r="4.5" fill="#2B9E8B" opacity="0.8"/><circle cx="553" cy="60" r="4.5" fill="#2B9E8B" opacity="0.8"/><circle cx="652" cy="75" r="4.5" fill="#2B9E8B" opacity="0.8"/><circle cx="628" cy="102" r="4.5" fill="#2B9E8B" opacity="0.8"/><circle cx="627" cy="136" r="4.5" fill="#2B9E8B" opacity="0.8"/><circle cx="664" cy="88" r="4.5" fill="#2B9E8B" opacity="0.8"/><circle cx="562" cy="102" r="4.5" fill="#2B9E8B" opacity="0.8"/><circle cx="613" cy="108" r="4.5" fill="#2B9E8B" opacity="0.8"/><text x="60" y="428" font-family="system-ui,Segoe UI,Arial,sans-serif" font-size="13" fill="#5b7083">Beehive Strategy · conceptual diagram</text></svg>