<svg xmlns="http://www.w3.org/2000/svg" viewBox="0 0 800 450" role="img" preserveAspectRatio="xMidYMid meet"><defs><linearGradient id="bg47" x1="0" y1="0" x2="1" y2="1"><stop offset="0" stop-color="#f7fafb"/><stop offset="1" stop-color="#eaf2f3"/></linearGradient></defs><rect width="800" height="450" rx="14" fill="url(#bg47)"/><ellipse cx="624" cy="99" rx="150" ry="110" fill="#6cc4b4" opacity="0.10"/><ellipse cx="144" cy="369" rx="130" ry="100" fill="#d4a843" opacity="0.08"/><circle cx="197" cy="117" r="4.5" fill="#6cc4b4" opacity="0.8"/><circle cx="225" cy="205" r="4.5" fill="#6cc4b4" opacity="0.8"/><circle cx="217" cy="21" r="4.5" fill="#6cc4b4" opacity="0.8"/><circle cx="159" cy="135" r="4.5" fill="#6cc4b4" opacity="0.8"/><circle cx="79" cy="-57" r="4.5" fill="#6cc4b4" opacity="0.8"/><circle cx="178" cy="52" r="4.5" fill="#6cc4b4" opacity="0.8"/><circle cx="197" cy="37" r="4.5" fill="#6cc4b4" opacity="0.8"/><circle cx="165" cy="59" r="4.5" fill="#6cc4b4" opacity="0.8"/><circle cx="188" cy="139" r="4.5" fill="#6cc4b4" opacity="0.8"/><circle cx="229" cy="60" r="4.5" fill="#6cc4b4" opacity="0.8"/><circle cx="178" cy="89" r="4.5" fill="#6cc4b4" opacity="0.8"/><circle cx="149" cy="136" r="4.5" fill="#6cc4b4" opacity="0.8"/><circle cx="185" cy="67" r="4.5" fill="#6cc4b4" opacity="0.8"/><circle cx="177" cy="55" r="4.5" fill="#6cc4b4" opacity="0.8"/><circle cx="119" cy="134" r="4.5" fill="#6cc4b4" opacity="0.8"/><circle cx="387" cy="313" r="4.5" fill="#6cc4b4" opacity="0.8"/><circle cx="367" cy="291" r="4.5" fill="#6cc4b4" opacity="0.8"/><circle cx="403" cy="270" r="4.5" fill="#6cc4b4" opacity="0.8"/><circle cx="346" cy="260" r="4.5" fill="#6cc4b4" opacity="0.8"/><circle cx="375" cy="274" r="4.5" fill="#6cc4b4" opacity="0.8"/><circle cx="468" cy="303" r="4.5" fill="#6cc4b4" opacity="0.8"/><circle cx="370" cy="304" r="4.5" fill="#6cc4b4" opacity="0.8"/><circle cx="385" cy="284" r="4.5" fill="#6cc4b4" opacity="0.8"/><circle cx="394" cy="308" r="4.5" fill="#6cc4b4" opacity="0.8"/><circle cx="353" cy="264" r="4.5" fill="#6cc4b4" opacity="0.8"/><circle cx="433" cy="312" r="4.5" fill="#6cc4b4" opacity="0.8"/><circle cx="720" cy="103" r="4.5" fill="#6cc4b4" opacity="0.8"/><circle cx="658" cy="114" r="4.5" fill="#6cc4b4" opacity="0.8"/><circle cx="679" cy="114" r="4.5" fill="#6cc4b4" opacity="0.8"/><circle cx="743" cy="90" r="4.5" fill="#6cc4b4" opacity="0.8"/><circle cx="593" cy="116" r="4.5" fill="#6cc4b4" opacity="0.8"/><circle cx="580" cy="53" r="4.5" fill="#6cc4b4" opacity="0.8"/><circle cx="543" cy="137" r="4.5" fill="#6cc4b4" opacity="0.8"/><circle cx="628" cy="89" r="4.5" fill="#6cc4b4" opacity="0.8"/><circle cx="654" cy="125" r="4.5" fill="#6cc4b4" opacity="0.8"/><circle cx="606" cy="78" r="4.5" fill="#6cc4b4" opacity="0.8"/><circle cx="700" cy="89" r="4.5" fill="#6cc4b4" opacity="0.8"/><circle cx="733" cy="113" r="4.5" fill="#6cc4b4" opacity="0.8"/><circle cx="635" cy="123" r="4.5" fill="#6cc4b4" opacity="0.8"/><text x="60" y="428" font-family="system-ui,Segoe UI,Arial,sans-serif" font-size="13" fill="#5b7083">Beehive Strategy · conceptual diagram</text></svg>