<svg xmlns="http://www.w3.org/2000/svg" viewBox="0 0 800 450" role="img" preserveAspectRatio="xMidYMid meet"><defs><linearGradient id="bg44" x1="0" y1="0" x2="1" y2="1"><stop offset="0" stop-color="#f7fafb"/><stop offset="1" stop-color="#eaf2f3"/></linearGradient></defs><rect width="800" height="450" rx="14" fill="url(#bg44)"/><ellipse cx="624" cy="99" rx="150" ry="110" fill="#6cc4b4" opacity="0.10"/><ellipse cx="144" cy="369" rx="130" ry="100" fill="#d4a843" opacity="0.08"/><circle cx="140" cy="76" r="4.5" fill="#2B9E8B" opacity="0.8"/><circle cx="158" cy="92" r="4.5" fill="#2B9E8B" opacity="0.8"/><circle cx="194" cy="24" r="4.5" fill="#2B9E8B" opacity="0.8"/><circle cx="184" cy="33" r="4.5" fill="#2B9E8B" opacity="0.8"/><circle cx="185" cy="59" r="4.5" fill="#2B9E8B" opacity="0.8"/><circle cx="222" cy="141" r="4.5" fill="#2B9E8B" opacity="0.8"/><circle cx="161" cy="98" r="4.5" fill="#2B9E8B" opacity="0.8"/><circle cx="162" cy="132" r="4.5" fill="#2B9E8B" opacity="0.8"/><circle cx="64" cy="113" r="4.5" fill="#2B9E8B" opacity="0.8"/><circle cx="119" cy="86" r="4.5" fill="#2B9E8B" opacity="0.8"/><circle cx="173" cy="150" r="4.5" fill="#2B9E8B" opacity="0.8"/><circle cx="194" cy="60" r="4.5" fill="#2B9E8B" opacity="0.8"/><circle cx="163" cy="73" r="4.5" fill="#2B9E8B" opacity="0.8"/><circle cx="186" cy="29" r="4.5" fill="#2B9E8B" opacity="0.8"/><circle cx="164" cy="161" r="4.5" fill="#2B9E8B" opacity="0.8"/><circle cx="192" cy="122" r="4.5" fill="#2B9E8B" opacity="0.8"/><circle cx="383" cy="288" r="4.5" fill="#6cc4b4" opacity="0.8"/><circle cx="419" cy="316" r="4.5" fill="#6cc4b4" opacity="0.8"/><circle cx="403" cy="293" r="4.5" fill="#6cc4b4" opacity="0.8"/><circle cx="479" cy="315" r="4.5" fill="#6cc4b4" opacity="0.8"/><circle cx="389" cy="324" r="4.5" fill="#6cc4b4" opacity="0.8"/><circle cx="422" cy="283" r="4.5" fill="#6cc4b4" opacity="0.8"/><circle cx="377" cy="287" r="4.5" fill="#6cc4b4" opacity="0.8"/><circle cx="375" cy="268" r="4.5" fill="#6cc4b4" opacity="0.8"/><circle cx="417" cy="205" r="4.5" fill="#6cc4b4" opacity="0.8"/><circle cx="447" cy="280" r="4.5" fill="#6cc4b4" opacity="0.8"/><circle cx="659" cy="1" r="4.5" fill="#2B9E8B" opacity="0.8"/><circle cx="654" cy="128" r="4.5" fill="#2B9E8B" opacity="0.8"/><circle cx="631" cy="57" r="4.5" fill="#2B9E8B" opacity="0.8"/><circle cx="603" cy="219" r="4.5" fill="#2B9E8B" opacity="0.8"/><circle cx="642" cy="39" r="4.5" fill="#2B9E8B" opacity="0.8"/><circle cx="598" cy="119" r="4.5" fill="#2B9E8B" opacity="0.8"/><circle cx="671" cy="145" r="4.5" fill="#2B9E8B" opacity="0.8"/><circle cx="576" cy="132" r="4.5" fill="#2B9E8B" opacity="0.8"/><circle cx="681" cy="173" r="4.5" fill="#2B9E8B" opacity="0.8"/><circle cx="658" cy="162" r="4.5" fill="#2B9E8B" opacity="0.8"/><circle cx="678" cy="175" r="4.5" fill="#2B9E8B" opacity="0.8"/><circle cx="642" cy="186" r="4.5" fill="#2B9E8B" opacity="0.8"/><circle cx="591" cy="33" r="4.5" fill="#2B9E8B" opacity="0.8"/><circle cx="680" cy="168" r="4.5" fill="#2B9E8B" opacity="0.8"/><circle cx="700" cy="190" r="4.5" fill="#2B9E8B" opacity="0.8"/><circle cx="652" cy="8" r="4.5" fill="#2B9E8B" opacity="0.8"/><text x="60" y="428" font-family="system-ui,Segoe UI,Arial,sans-serif" font-size="13" fill="#5b7083">Beehive Strategy · conceptual diagram</text></svg>