<svg xmlns="http://www.w3.org/2000/svg" viewBox="0 0 800 450" role="img" preserveAspectRatio="xMidYMid meet"><defs><linearGradient id="bg83" x1="0" y1="0" x2="1" y2="1"><stop offset="0" stop-color="#f7fafb"/><stop offset="1" stop-color="#eaf2f3"/></linearGradient></defs><rect width="800" height="450" rx="14" fill="url(#bg83)"/><ellipse cx="624" cy="99" rx="150" ry="110" fill="#6cc4b4" opacity="0.10"/><ellipse cx="144" cy="369" rx="130" ry="100" fill="#d4a843" opacity="0.08"/><line x1="695" y1="389" x2="143" y2="183" stroke="#e8eef0" stroke-width="2"/><line x1="695" y1="389" x2="540" y2="268" stroke="#e8eef0" stroke-width="2"/><line x1="143" y1="183" x2="540" y2="268" stroke="#e8eef0" stroke-width="2"/><line x1="143" y1="183" x2="602" y2="324" stroke="#e8eef0" stroke-width="2"/><line x1="540" y1="268" x2="602" y2="324" stroke="#e8eef0" stroke-width="2"/><line x1="540" y1="268" x2="104" y2="221" stroke="#e8eef0" stroke-width="2"/><line x1="602" y1="324" x2="104" y2="221" stroke="#e8eef0" stroke-width="2"/><line x1="602" y1="324" x2="721" y2="387" stroke="#e8eef0" stroke-width="2"/><line x1="104" y1="221" x2="721" y2="387" stroke="#e8eef0" stroke-width="2"/><circle cx="695" cy="389" r="12" fill="#d4a843" class="svg-draw" pathLength="1" stroke="#0e2a3b" stroke-width="1.5"/><circle cx="143" cy="183" r="10" fill="#d4a843" class="svg-draw" pathLength="1" stroke="#0e2a3b" stroke-width="1.5"/><circle cx="540" cy="268" r="14" fill="#d4a843" class="svg-draw" pathLength="1" stroke="#0e2a3b" stroke-width="1.5"/><circle cx="602" cy="324" r="11" fill="#d4a843" class="svg-draw" pathLength="1" stroke="#0e2a3b" stroke-width="1.5"/><circle cx="104" cy="221" r="15" fill="#d4a843" class="svg-draw" pathLength="1" stroke="#0e2a3b" stroke-width="1.5"/><circle cx="721" cy="387" r="14" fill="#d4a843" class="svg-draw" pathLength="1" stroke="#0e2a3b" stroke-width="1.5"/><text x="60" y="428" font-family="system-ui,Segoe UI,Arial,sans-serif" font-size="13" fill="#5b7083">Beehive Strategy · conceptual diagram</text></svg>