<svg xmlns="http://www.w3.org/2000/svg" viewBox="0 0 800 450" role="img" preserveAspectRatio="xMidYMid meet"><defs><linearGradient id="bg46" x1="0" y1="0" x2="1" y2="1"><stop offset="0" stop-color="#f7fafb"/><stop offset="1" stop-color="#eaf2f3"/></linearGradient></defs><rect width="800" height="450" rx="14" fill="url(#bg46)"/><ellipse cx="624" cy="99" rx="150" ry="110" fill="#6cc4b4" opacity="0.10"/><ellipse cx="144" cy="369" rx="130" ry="100" fill="#d4a843" opacity="0.08"/><line x1="641" y1="323" x2="201" y2="287" stroke="#e8eef0" stroke-width="2"/><line x1="641" y1="323" x2="216" y2="309" stroke="#e8eef0" stroke-width="2"/><line x1="201" y1="287" x2="216" y2="309" stroke="#e8eef0" stroke-width="2"/><line x1="201" y1="287" x2="204" y2="143" stroke="#e8eef0" stroke-width="2"/><line x1="216" y1="309" x2="204" y2="143" stroke="#e8eef0" stroke-width="2"/><line x1="216" y1="309" x2="380" y2="109" stroke="#e8eef0" stroke-width="2"/><line x1="204" y1="143" x2="380" y2="109" stroke="#e8eef0" stroke-width="2"/><line x1="204" y1="143" x2="230" y2="199" stroke="#e8eef0" stroke-width="2"/><line x1="380" y1="109" x2="230" y2="199" stroke="#e8eef0" stroke-width="2"/><line x1="380" y1="109" x2="78" y2="320" stroke="#e8eef0" stroke-width="2"/><line x1="230" y1="199" x2="78" y2="320" stroke="#e8eef0" stroke-width="2"/><line x1="230" y1="199" x2="444" y2="275" stroke="#e8eef0" stroke-width="2"/><line x1="78" y1="320" x2="444" y2="275" stroke="#e8eef0" stroke-width="2"/><circle cx="641" cy="323" r="11" fill="#6cc4b4" class="svg-draw" pathLength="1" stroke="#0e2a3b" stroke-width="1.5"/><circle cx="201" cy="287" r="9" fill="#6cc4b4" class="svg-draw" pathLength="1" stroke="#0e2a3b" stroke-width="1.5"/><circle cx="216" cy="309" r="11" fill="#6cc4b4" class="svg-draw" pathLength="1" stroke="#0e2a3b" stroke-width="1.5"/><circle cx="204" cy="143" r="16" fill="#6cc4b4" class="svg-draw" pathLength="1" stroke="#0e2a3b" stroke-width="1.5"/><circle cx="380" cy="109" r="13" fill="#6cc4b4" class="svg-draw" pathLength="1" stroke="#0e2a3b" stroke-width="1.5"/><circle cx="230" cy="199" r="10" fill="#6cc4b4" class="svg-draw" pathLength="1" stroke="#0e2a3b" stroke-width="1.5"/><circle cx="78" cy="320" r="16" fill="#6cc4b4" class="svg-draw" pathLength="1" stroke="#0e2a3b" stroke-width="1.5"/><circle cx="444" cy="275" r="10" fill="#6cc4b4" class="svg-draw" pathLength="1" stroke="#0e2a3b" stroke-width="1.5"/><text x="60" y="428" font-family="system-ui,Segoe UI,Arial,sans-serif" font-size="13" fill="#5b7083">Beehive Strategy · conceptual diagram</text></svg>