<svg xmlns="http://www.w3.org/2000/svg" viewBox="0 0 800 450" role="img" preserveAspectRatio="xMidYMid meet"><defs><linearGradient id="bg39" x1="0" y1="0" x2="1" y2="1"><stop offset="0" stop-color="#f7fafb"/><stop offset="1" stop-color="#eaf2f3"/></linearGradient></defs><rect width="800" height="450" rx="14" fill="url(#bg39)"/><ellipse cx="624" cy="99" rx="150" ry="110" fill="#6cc4b4" opacity="0.10"/><ellipse cx="144" cy="369" rx="130" ry="100" fill="#d4a843" opacity="0.08"/><circle cx="148" cy="131" r="4.5" fill="#d4a843" opacity="0.8"/><circle cx="177" cy="66" r="4.5" fill="#d4a843" opacity="0.8"/><circle cx="178" cy="98" r="4.5" fill="#d4a843" opacity="0.8"/><circle cx="273" cy="94" r="4.5" fill="#d4a843" opacity="0.8"/><circle cx="179" cy="66" r="4.5" fill="#d4a843" opacity="0.8"/><circle cx="137" cy="128" r="4.5" fill="#d4a843" opacity="0.8"/><circle cx="160" cy="162" r="4.5" fill="#d4a843" opacity="0.8"/><circle cx="169" cy="5" r="4.5" fill="#d4a843" opacity="0.8"/><circle cx="166" cy="59" r="4.5" fill="#d4a843" opacity="0.8"/><circle cx="123" cy="127" r="4.5" fill="#d4a843" opacity="0.8"/><circle cx="214" cy="122" r="4.5" fill="#d4a843" opacity="0.8"/><circle cx="153" cy="176" r="4.5" fill="#d4a843" opacity="0.8"/><circle cx="146" cy="101" r="4.5" fill="#d4a843" opacity="0.8"/><circle cx="215" cy="67" r="4.5" fill="#d4a843" opacity="0.8"/><circle cx="176" cy="76" r="4.5" fill="#d4a843" opacity="0.8"/><circle cx="451" cy="314" r="4.5" fill="#d4a843" opacity="0.8"/><circle cx="443" cy="268" r="4.5" fill="#d4a843" opacity="0.8"/><circle cx="397" cy="228" r="4.5" fill="#d4a843" opacity="0.8"/><circle cx="424" cy="320" r="4.5" fill="#d4a843" opacity="0.8"/><circle cx="465" cy="275" r="4.5" fill="#d4a843" opacity="0.8"/><circle cx="401" cy="408" r="4.5" fill="#d4a843" opacity="0.8"/><circle cx="419" cy="239" r="4.5" fill="#d4a843" opacity="0.8"/><circle cx="347" cy="304" r="4.5" fill="#d4a843" opacity="0.8"/><circle cx="387" cy="210" r="4.5" fill="#d4a843" opacity="0.8"/><circle cx="342" cy="247" r="4.5" fill="#d4a843" opacity="0.8"/><circle cx="317" cy="251" r="4.5" fill="#d4a843" opacity="0.8"/><circle cx="441" cy="277" r="4.5" fill="#d4a843" opacity="0.8"/><circle cx="625" cy="62" r="4.5" fill="#d4a843" opacity="0.8"/><circle cx="635" cy="61" r="4.5" fill="#d4a843" opacity="0.8"/><circle cx="551" cy="87" r="4.5" fill="#d4a843" opacity="0.8"/><circle cx="605" cy="44" r="4.5" fill="#d4a843" opacity="0.8"/><circle cx="580" cy="31" r="4.5" fill="#d4a843" opacity="0.8"/><circle cx="645" cy="113" r="4.5" fill="#d4a843" opacity="0.8"/><circle cx="648" cy="72" r="4.5" fill="#d4a843" opacity="0.8"/><circle cx="587" cy="108" r="4.5" fill="#d4a843" opacity="0.8"/><circle cx="641" cy="165" r="4.5" fill="#d4a843" opacity="0.8"/><circle cx="706" cy="90" r="4.5" fill="#d4a843" opacity="0.8"/><circle cx="612" cy="99" r="4.5" fill="#d4a843" opacity="0.8"/><circle cx="656" cy="118" r="4.5" fill="#d4a843" opacity="0.8"/><circle cx="598" cy="102" r="4.5" fill="#d4a843" opacity="0.8"/><circle cx="629" cy="142" r="4.5" fill="#d4a843" opacity="0.8"/><circle cx="630" cy="134" r="4.5" fill="#d4a843" opacity="0.8"/><circle cx="631" cy="52" r="4.5" fill="#d4a843" opacity="0.8"/><text x="60" y="428" font-family="system-ui,Segoe UI,Arial,sans-serif" font-size="13" fill="#5b7083">Beehive Strategy · conceptual diagram</text></svg>