<svg xmlns="http://www.w3.org/2000/svg" viewBox="0 0 800 450" role="img" preserveAspectRatio="xMidYMid meet"><defs><linearGradient id="bg21" x1="0" y1="0" x2="1" y2="1"><stop offset="0" stop-color="#f7fafb"/><stop offset="1" stop-color="#eaf2f3"/></linearGradient></defs><rect width="800" height="450" rx="14" fill="url(#bg21)"/><ellipse cx="624" cy="99" rx="150" ry="110" fill="#6cc4b4" opacity="0.10"/><ellipse cx="144" cy="369" rx="130" ry="100" fill="#d4a843" opacity="0.08"/><circle cx="160" cy="73" r="4.5" fill="#6cc4b4" opacity="0.8"/><circle cx="137" cy="17" r="4.5" fill="#6cc4b4" opacity="0.8"/><circle cx="185" cy="126" r="4.5" fill="#6cc4b4" opacity="0.8"/><circle cx="182" cy="83" r="4.5" fill="#6cc4b4" opacity="0.8"/><circle cx="195" cy="93" r="4.5" fill="#6cc4b4" opacity="0.8"/><circle cx="181" cy="98" r="4.5" fill="#6cc4b4" opacity="0.8"/><circle cx="123" cy="124" r="4.5" fill="#6cc4b4" opacity="0.8"/><circle cx="142" cy="99" r="4.5" fill="#6cc4b4" opacity="0.8"/><circle cx="184" cy="44" r="4.5" fill="#6cc4b4" opacity="0.8"/><circle cx="262" cy="46" r="4.5" fill="#6cc4b4" opacity="0.8"/><circle cx="178" cy="64" r="4.5" fill="#6cc4b4" opacity="0.8"/><circle cx="437" cy="256" r="4.5" fill="#6cc4b4" opacity="0.8"/><circle cx="376" cy="300" r="4.5" fill="#6cc4b4" opacity="0.8"/><circle cx="329" cy="229" r="4.5" fill="#6cc4b4" opacity="0.8"/><circle cx="369" cy="288" r="4.5" fill="#6cc4b4" opacity="0.8"/><circle cx="430" cy="201" r="4.5" fill="#6cc4b4" opacity="0.8"/><circle cx="435" cy="277" r="4.5" fill="#6cc4b4" opacity="0.8"/><circle cx="363" cy="271" r="4.5" fill="#6cc4b4" opacity="0.8"/><circle cx="360" cy="288" r="4.5" fill="#6cc4b4" opacity="0.8"/><circle cx="412" cy="223" r="4.5" fill="#6cc4b4" opacity="0.8"/><circle cx="397" cy="247" r="4.5" fill="#6cc4b4" opacity="0.8"/><circle cx="424" cy="305" r="4.5" fill="#6cc4b4" opacity="0.8"/><circle cx="363" cy="266" r="4.5" fill="#6cc4b4" opacity="0.8"/><circle cx="433" cy="266" r="4.5" fill="#6cc4b4" opacity="0.8"/><circle cx="621" cy="85" r="4.5" fill="#6cc4b4" opacity="0.8"/><circle cx="576" cy="124" r="4.5" fill="#6cc4b4" opacity="0.8"/><circle cx="555" cy="-28" r="4.5" fill="#6cc4b4" opacity="0.8"/><circle cx="683" cy="30" r="4.5" fill="#6cc4b4" opacity="0.8"/><circle cx="626" cy="89" r="4.5" fill="#6cc4b4" opacity="0.8"/><circle cx="677" cy="49" r="4.5" fill="#6cc4b4" opacity="0.8"/><circle cx="635" cy="61" r="4.5" fill="#6cc4b4" opacity="0.8"/><circle cx="566" cy="106" r="4.5" fill="#6cc4b4" opacity="0.8"/><circle cx="647" cy="99" r="4.5" fill="#6cc4b4" opacity="0.8"/><circle cx="624" cy="43" r="4.5" fill="#6cc4b4" opacity="0.8"/><text x="60" y="428" font-family="system-ui,Segoe UI,Arial,sans-serif" font-size="13" fill="#5b7083">Beehive Strategy · conceptual diagram</text></svg>