<svg xmlns="http://www.w3.org/2000/svg" viewBox="0 0 800 450" role="img" preserveAspectRatio="xMidYMid meet"><defs><linearGradient id="bg67" x1="0" y1="0" x2="1" y2="1"><stop offset="0" stop-color="#f7fafb"/><stop offset="1" stop-color="#eaf2f3"/></linearGradient></defs><rect width="800" height="450" rx="14" fill="url(#bg67)"/><ellipse cx="624" cy="99" rx="150" ry="110" fill="#6cc4b4" opacity="0.10"/><ellipse cx="144" cy="369" rx="130" ry="100" fill="#d4a843" opacity="0.08"/><circle cx="185" cy="98" r="4.5" fill="#6cc4b4" opacity="0.8"/><circle cx="182" cy="118" r="4.5" fill="#6cc4b4" opacity="0.8"/><circle cx="177" cy="38" r="4.5" fill="#6cc4b4" opacity="0.8"/><circle cx="170" cy="119" r="4.5" fill="#6cc4b4" opacity="0.8"/><circle cx="221" cy="178" r="4.5" fill="#6cc4b4" opacity="0.8"/><circle cx="202" cy="13" r="4.5" fill="#6cc4b4" opacity="0.8"/><circle cx="213" cy="164" r="4.5" fill="#6cc4b4" opacity="0.8"/><circle cx="156" cy="101" r="4.5" fill="#6cc4b4" opacity="0.8"/><circle cx="158" cy="132" r="4.5" fill="#6cc4b4" opacity="0.8"/><circle cx="189" cy="73" r="4.5" fill="#6cc4b4" opacity="0.8"/><circle cx="197" cy="108" r="4.5" fill="#6cc4b4" opacity="0.8"/><circle cx="246" cy="109" r="4.5" fill="#6cc4b4" opacity="0.8"/><circle cx="189" cy="92" r="4.5" fill="#6cc4b4" opacity="0.8"/><circle cx="432" cy="324" r="4.5" fill="#d4a843" opacity="0.8"/><circle cx="411" cy="212" r="4.5" fill="#d4a843" opacity="0.8"/><circle cx="477" cy="290" r="4.5" fill="#d4a843" opacity="0.8"/><circle cx="385" cy="219" r="4.5" fill="#d4a843" opacity="0.8"/><circle cx="383" cy="315" r="4.5" fill="#d4a843" opacity="0.8"/><circle cx="377" cy="295" r="4.5" fill="#d4a843" opacity="0.8"/><circle cx="395" cy="158" r="4.5" fill="#d4a843" opacity="0.8"/><circle cx="411" cy="368" r="4.5" fill="#d4a843" opacity="0.8"/><circle cx="373" cy="301" r="4.5" fill="#d4a843" opacity="0.8"/><circle cx="395" cy="294" r="4.5" fill="#d4a843" opacity="0.8"/><circle cx="355" cy="351" r="4.5" fill="#d4a843" opacity="0.8"/><circle cx="305" cy="245" r="4.5" fill="#d4a843" opacity="0.8"/><circle cx="468" cy="335" r="4.5" fill="#d4a843" opacity="0.8"/><circle cx="421" cy="267" r="4.5" fill="#d4a843" opacity="0.8"/><circle cx="386" cy="340" r="4.5" fill="#d4a843" opacity="0.8"/><circle cx="374" cy="287" r="4.5" fill="#d4a843" opacity="0.8"/><circle cx="609" cy="112" r="4.5" fill="#6cc4b4" opacity="0.8"/><circle cx="569" cy="66" r="4.5" fill="#6cc4b4" opacity="0.8"/><circle cx="636" cy="60" r="4.5" fill="#6cc4b4" opacity="0.8"/><circle cx="563" cy="63" r="4.5" fill="#6cc4b4" opacity="0.8"/><circle cx="608" cy="105" r="4.5" fill="#6cc4b4" opacity="0.8"/><circle cx="637" cy="135" r="4.5" fill="#6cc4b4" opacity="0.8"/><circle cx="579" cy="137" r="4.5" fill="#6cc4b4" opacity="0.8"/><circle cx="567" cy="141" r="4.5" fill="#6cc4b4" opacity="0.8"/><circle cx="608" cy="39" r="4.5" fill="#6cc4b4" opacity="0.8"/><circle cx="663" cy="56" r="4.5" fill="#6cc4b4" opacity="0.8"/><text x="60" y="428" font-family="system-ui,Segoe UI,Arial,sans-serif" font-size="13" fill="#5b7083">Beehive Strategy · conceptual diagram</text></svg>