<svg xmlns="http://www.w3.org/2000/svg" viewBox="0 0 800 450" role="img" preserveAspectRatio="xMidYMid meet"><defs><linearGradient id="bg46" x1="0" y1="0" x2="1" y2="1"><stop offset="0" stop-color="#f7fafb"/><stop offset="1" stop-color="#eaf2f3"/></linearGradient></defs><rect width="800" height="450" rx="14" fill="url(#bg46)"/><ellipse cx="624" cy="99" rx="150" ry="110" fill="#6cc4b4" opacity="0.10"/><ellipse cx="144" cy="369" rx="130" ry="100" fill="#d4a843" opacity="0.08"/><line x1="66" y1="267" x2="651" y2="261" stroke="#e8eef0" stroke-width="2"/><line x1="66" y1="267" x2="505" y2="250" stroke="#e8eef0" stroke-width="2"/><line x1="651" y1="261" x2="505" y2="250" stroke="#e8eef0" stroke-width="2"/><line x1="651" y1="261" x2="420" y2="208" stroke="#e8eef0" stroke-width="2"/><line x1="505" y1="250" x2="420" y2="208" stroke="#e8eef0" stroke-width="2"/><line x1="505" y1="250" x2="630" y2="246" stroke="#e8eef0" stroke-width="2"/><line x1="420" y1="208" x2="630" y2="246" stroke="#e8eef0" stroke-width="2"/><line x1="420" y1="208" x2="485" y2="301" stroke="#e8eef0" stroke-width="2"/><line x1="630" y1="246" x2="485" y2="301" stroke="#e8eef0" stroke-width="2"/><circle cx="66" cy="267" r="12" fill="#d4a843" class="svg-draw" pathLength="1" stroke="#0e2a3b" stroke-width="1.5"/><circle cx="651" cy="261" r="13" fill="#d4a843" class="svg-draw" pathLength="1" stroke="#0e2a3b" stroke-width="1.5"/><circle cx="505" cy="250" r="14" fill="#d4a843" class="svg-draw" pathLength="1" stroke="#0e2a3b" stroke-width="1.5"/><circle cx="420" cy="208" r="9" fill="#d4a843" class="svg-draw" pathLength="1" stroke="#0e2a3b" stroke-width="1.5"/><circle cx="630" cy="246" r="13" fill="#d4a843" class="svg-draw" pathLength="1" stroke="#0e2a3b" stroke-width="1.5"/><circle cx="485" cy="301" r="11" fill="#d4a843" class="svg-draw" pathLength="1" stroke="#0e2a3b" stroke-width="1.5"/><text x="60" y="428" font-family="system-ui,Segoe UI,Arial,sans-serif" font-size="13" fill="#5b7083">Beehive Strategy · conceptual diagram</text></svg>