<svg xmlns="http://www.w3.org/2000/svg" viewBox="0 0 800 450" role="img" preserveAspectRatio="xMidYMid meet"><defs><linearGradient id="bg8" x1="0" y1="0" x2="1" y2="1"><stop offset="0" stop-color="#f7fafb"/><stop offset="1" stop-color="#eaf2f3"/></linearGradient></defs><rect width="800" height="450" rx="14" fill="url(#bg8)"/><ellipse cx="624" cy="99" rx="150" ry="110" fill="#6cc4b4" opacity="0.10"/><ellipse cx="144" cy="369" rx="130" ry="100" fill="#d4a843" opacity="0.08"/><circle cx="189" cy="122" r="4.5" fill="#6cc4b4" opacity="0.8"/><circle cx="153" cy="80" r="4.5" fill="#6cc4b4" opacity="0.8"/><circle cx="148" cy="73" r="4.5" fill="#6cc4b4" opacity="0.8"/><circle cx="128" cy="29" r="4.5" fill="#6cc4b4" opacity="0.8"/><circle cx="131" cy="43" r="4.5" fill="#6cc4b4" opacity="0.8"/><circle cx="73" cy="74" r="4.5" fill="#6cc4b4" opacity="0.8"/><circle cx="192" cy="105" r="4.5" fill="#6cc4b4" opacity="0.8"/><circle cx="124" cy="123" r="4.5" fill="#6cc4b4" opacity="0.8"/><circle cx="118" cy="114" r="4.5" fill="#6cc4b4" opacity="0.8"/><circle cx="243" cy="26" r="4.5" fill="#6cc4b4" opacity="0.8"/><circle cx="128" cy="113" r="4.5" fill="#6cc4b4" opacity="0.8"/><circle cx="147" cy="93" r="4.5" fill="#6cc4b4" opacity="0.8"/><circle cx="397" cy="189" r="4.5" fill="#2B9E8B" opacity="0.8"/><circle cx="371" cy="265" r="4.5" fill="#2B9E8B" opacity="0.8"/><circle cx="384" cy="269" r="4.5" fill="#2B9E8B" opacity="0.8"/><circle cx="487" cy="254" r="4.5" fill="#2B9E8B" opacity="0.8"/><circle cx="356" cy="292" r="4.5" fill="#2B9E8B" opacity="0.8"/><circle cx="433" cy="198" r="4.5" fill="#2B9E8B" opacity="0.8"/><circle cx="418" cy="220" r="4.5" fill="#2B9E8B" opacity="0.8"/><circle cx="352" cy="261" r="4.5" fill="#2B9E8B" opacity="0.8"/><circle cx="359" cy="250" r="4.5" fill="#2B9E8B" opacity="0.8"/><circle cx="432" cy="329" r="4.5" fill="#2B9E8B" opacity="0.8"/><circle cx="390" cy="240" r="4.5" fill="#2B9E8B" opacity="0.8"/><circle cx="658" cy="105" r="4.5" fill="#6cc4b4" opacity="0.8"/><circle cx="645" cy="67" r="4.5" fill="#6cc4b4" opacity="0.8"/><circle cx="643" cy="98" r="4.5" fill="#6cc4b4" opacity="0.8"/><circle cx="675" cy="131" r="4.5" fill="#6cc4b4" opacity="0.8"/><circle cx="640" cy="93" r="4.5" fill="#6cc4b4" opacity="0.8"/><circle cx="571" cy="209" r="4.5" fill="#6cc4b4" opacity="0.8"/><circle cx="610" cy="101" r="4.5" fill="#6cc4b4" opacity="0.8"/><circle cx="663" cy="69" r="4.5" fill="#6cc4b4" opacity="0.8"/><circle cx="683" cy="178" r="4.5" fill="#6cc4b4" opacity="0.8"/><circle cx="487" cy="119" r="4.5" fill="#6cc4b4" opacity="0.8"/><circle cx="689" cy="30" r="4.5" fill="#6cc4b4" opacity="0.8"/><circle cx="656" cy="86" r="4.5" fill="#6cc4b4" opacity="0.8"/><circle cx="526" cy="131" r="4.5" fill="#6cc4b4" opacity="0.8"/><circle cx="603" cy="47" r="4.5" fill="#6cc4b4" opacity="0.8"/><text x="60" y="428" font-family="system-ui,Segoe UI,Arial,sans-serif" font-size="13" fill="#5b7083">Beehive Strategy · conceptual diagram</text></svg>